<?xml version="1.0" encoding="UTF-8"?>
<svg width="38px" height="34px" viewBox="0 0 38 34" version="1.1" xmlns="http://www.w3.org/2000/svg" xmlns:xlink="http://www.w3.org/1999/xlink">
    <!-- Generator: Sketch 52.2 (67145) - http://www.bohemiancoding.com/sketch -->
    <title>相机@3x</title>
    <desc>Created with Sketch.</desc>
    <g id="Page-1" stroke="none" stroke-width="1" fill="none" fill-rule="evenodd">
        <g id="10发布活动" transform="translate(-167.000000, -119.000000)" fill="#37D0C9" fill-rule="nonzero">
            <g id="相机" transform="translate(165.000000, 112.000000)">
                <polygon id="Rectangle-path" opacity="0" points="0 0 45 0 45 45 0 45"></polygon>
                <path d="M33.0323937,12.6666667 L26.9103568,12.6666667 L25.9955697,9.90416667 C25.4326238,8.13333333 23.8141543,7 21.9845801,7 L12.5552359,7 C10.7256617,7 9.10719221,8.13333333 8.54424629,9.90416667 L7.55909093,12.8083333 C4.39252015,13.5166667 2,16.35 2,19.75 L2,33.9166667 C2,37.8125 5.16657078,41 9.03682397,41 L32.9620255,41 C36.8322786,41 39.9988494,37.8125 39.9988494,33.9166667 L39.9988494,19.75 C40.0692177,15.8541667 36.9026469,12.6666667 33.0323937,12.6666667 Z M11.2182394,10.825 C11.4293441,10.2583333 11.9219218,9.83333333 12.5552359,9.83333333 L21.9845801,9.83333333 C22.6178942,9.83333333 23.1104719,10.1875 23.3215766,10.825 L23.9548908,12.6666667 L10.6552935,12.6666667 L11.2182394,10.825 Z M37.2544881,33.9166667 C37.2544881,36.2541667 35.3545456,38.1666667 33.0323937,38.1666667 L9.10719221,38.1666667 C6.7850403,38.1666667 4.88509783,36.2541667 4.88509783,33.9166667 L4.88509783,19.75 C4.88509783,17.4125 6.7850403,15.5 9.10719221,15.5 L33.0323937,15.5 C35.3545456,15.5 37.2544881,17.4125 37.2544881,19.75 L37.2544881,33.9166667 Z" id="Shape"></path>
                <path d="M31.7419355,10.7777778 L34.5806452,10.7777778 C35.3612903,10.7777778 36,10.1527778 36,9.38888889 C36,8.625 35.3612903,8 34.5806452,8 L31.7419355,8 C30.9612903,8 30.3225806,8.625 30.3225806,9.38888889 C30.3225806,10.1527778 30.9612903,10.7777778 31.7419355,10.7777778 Z M21.0967742,19.1111111 C17.1935484,19.1111111 14,22.2361111 14,26.0555556 C14,29.875 17.1935484,33 21.0967742,33 C25,33 28.1935484,29.875 28.1935484,26.0555556 C28.1935484,22.2361111 25,19.1111111 21.0967742,19.1111111 Z M21.0967742,30.2222222 C18.7548387,30.2222222 16.8387097,28.3472222 16.8387097,26.0555556 C16.8387097,23.7638889 18.7548387,21.8888889 21.0967742,21.8888889 C23.4387097,21.8888889 25.3548387,23.7638889 25.3548387,26.0555556 C25.3548387,28.3472222 23.4387097,30.2222222 21.0967742,30.2222222 Z" id="Shape"></path>
            </g>
        </g>
    </g>
</svg>