<?xml version="1.0" encoding="UTF-8"?>
<svg width="14px" height="14px" viewBox="0 0 14 14" version="1.1" xmlns="http://www.w3.org/2000/svg" xmlns:xlink="http://www.w3.org/1999/xlink">
    <!-- Generator: Sketch 52.2 (67145) - http://www.bohemiancoding.com/sketch -->
    <title>选中@3x</title>
    <desc>Created with Sketch.</desc>
    <g id="Page-1" stroke="none" stroke-width="1" fill="none" fill-rule="evenodd">
        <g id="10发布活动" transform="translate(-21.000000, -600.000000)" fill="#37D0C9" fill-rule="nonzero">
            <g id="选中" transform="translate(20.000000, 599.000000)">
                <rect id="Rectangle-path" opacity="0" x="0" y="0" width="16" height="16"></rect>
                <path d="M8,1 C4.134,1 1,4.134 1,8 C1,11.866 4.134,15 8,15 C11.866,15 15,11.866 15,8 C15,4.134 11.866,1 8,1 Z M12.2426406,12.2426406 C11.6912969,12.794 11.0495312,13.22675 10.3351719,13.5289063 C9.59609375,13.8415 8.8104375,14 8,14 C7.1895625,14 6.40390625,13.8415 5.66482812,13.5289063 C4.95046875,13.2267656 4.30870312,12.794 3.75735937,12.2426406 C3.206,11.6912969 2.77325,11.0495312 2.47109375,10.3351719 C2.1585,9.59609375 2,8.8104375 2,8 C2,7.1895625 2.1585,6.40390625 2.47109375,5.66482812 C2.77323437,4.95046875 3.206,4.30870312 3.75735938,3.75735937 C4.30870313,3.206 4.95046875,2.77325 5.66482812,2.47109375 C6.40390625,2.1585 7.1895625,2 8,2 C8.8104375,2 9.59609375,2.1585 10.3351719,2.47109375 C11.0495313,2.77323437 11.6912969,3.206 12.2426406,3.75735938 C12.794,4.30870313 13.22675,4.95046875 13.5289063,5.66482812 C13.8415,6.40390625 14,7.1895625 14,8 C14,8.8104375 13.8415,9.59609375 13.5289063,10.3351719 C13.22675,11.0495156 12.794,11.6912969 12.2426406,12.2426406 Z M11.055875,5.66446875 L7.00726562,9.71307812 L4.944125,7.6499375 C4.74885937,7.45467188 4.43228125,7.45467188 4.23701562,7.6499375 C4.04175,7.84520313 4.04175,8.16178125 4.23701562,8.35704688 L6.65370312,10.7737344 C6.75134375,10.871375 6.87929687,10.9201875 7.00725,10.9201875 C7.13520313,10.9201875 7.26317188,10.871375 7.36079688,10.7737344 L11.7629688,6.37157813 C11.9582344,6.1763125 11.9582344,5.85973438 11.7629688,5.66446875 C11.5677188,5.46920313 11.251125,5.46920313 11.055875,5.66446875 Z" id="Shape"></path>
            </g>
        </g>
    </g>
</svg>