<?xml version="1.0" standalone="no"?><!DOCTYPE svg PUBLIC "-//W3C//DTD SVG 1.1//EN" "http://www.w3.org/Graphics/SVG/1.1/DTD/svg11.dtd"><svg t="1541902040127" class="icon" style="" viewBox="0 0 1024 1024" version="1.1" xmlns="http://www.w3.org/2000/svg" p-id="5528" xmlns:xlink="http://www.w3.org/1999/xlink" width="200" height="200"><defs><style type="text/css"></style></defs><path d="M512 1016C233.6 1016 8 790.4 8 512S233.6 8 512 8 1016 233.6 1016 512 790.4 1016 512 1016z m0-960C260.8 56 56 260.8 56 512S260.8 968 512 968 968 763.2 968 512 763.2 56 512 56z" p-id="5529" fill="#8a8a8a"></path><path d="M548.8 512l195.2-195.2c9.6-9.6 9.6-25.6 0-36.8l-1.6-1.6c-9.6-9.6-25.6-9.6-35.2 0L512 475.2 316.8 280c-9.6-9.6-25.6-9.6-35.2 0l-1.6 1.6c-9.6 9.6-9.6 25.6 0 36.8L475.2 512 280 707.2c-9.6 9.6-9.6 25.6 0 36.8l1.6 1.6c9.6 9.6 25.6 9.6 35.2 0L512 548.8l195.2 195.2c9.6 9.6 25.6 9.6 35.2 0l1.6-1.6c9.6-9.6 9.6-25.6 0-36.8L548.8 512z" p-id="5530" fill="#8a8a8a"></path></svg>