<?xml version="1.0" encoding="UTF-8"?>
<svg width="22px" height="22px" viewBox="0 0 22 22" version="1.1" xmlns="http://www.w3.org/2000/svg" xmlns:xlink="http://www.w3.org/1999/xlink">
    <!-- Generator: Sketch 51 (57462) - http://www.bohemiancoding.com/sketch -->
    <title>Tab_动态（未选中）@3x</title>
    <desc>Created with Sketch.</desc>
    <defs></defs>
    <g id="Page-1" stroke="none" stroke-width="1" fill="none" fill-rule="evenodd">
        <g id="活动" transform="translate(-56.000000, -624.000000)" fill="#97A9B8">
            <g id="底栏-首页" transform="translate(0.000000, 618.000000)">
                <g id="Tab_动态（未选中）" transform="translate(56.000000, 6.000000)">
                    <g>
                        <rect id="Rectangle-path" fill-rule="nonzero" opacity="0" x="0" y="0" width="22" height="22"></rect>
                        <path d="M19.1,12.1 C19.15,12 21.35,9.2 21.55,8.30000001 C21.6,7.9 21.35,7.5 21.25,7.35 C20.5,6.30000001 19.1,5.1 17.95,4.45000001 C17.3,4.10000001 16.6,3.90000001 15.9,3.7 C15.15,3.5 14.4,3.40000001 13.7,3.39999999 C13.55,3.39999999 13.35,3.49999998 13.25,3.59999999 C13.1,3.69999998 13.05,3.85 13.05,4.05 C13.05,4.2 13.15,4.34999999 13.25,4.45000001 C13.35,4.6 13.5,4.65000001 13.7,4.65000001 C14.25,4.65000001 14.9,4.75 15.6,4.8 C16.2,4.95 16.8,5.20000001 17.4,5.5 C18,5.79999999 20.15,7.35 20.2,8.15000001 C20.1,8.65 17.85,11.7 17.85,11.7 C17.7,11.9 17.75,12.05 17.8,12.25 C18.2,13.45 18.15,15.35 17.95,16.25 C17.8,16.85 17.65,17.4 17.4,17.95 C17.15,18.55 16.7,19.35 16.3,19.75 C16.05,19.7 13.85,18.7 13.6,18.65 C13.45,18.65 13.3,18.65 13.2,18.7 C12.5,19.05 9.99999999,20.15 9.15,20.2 C8.6,20.25 7.99999999,20.25 7.40000001,20.2 C6.8,20.15 5.9,19.95 5.55000001,19.65 C5.25000001,19.4 5.45000002,16.6 5.24999999,16.25 C5.04999997,15.9 3.74999999,14.75 3.45,14.3 C3.04999999,13.8 2.75,13.3 2.49999999,12.75 C2.2,12.2 2,11.6 1.90000001,11 C1.80000002,10.35 1.75000001,9.09999999 1.8,9 C1.8,9 5.19999999,7.55 5.35,7.35 C5.65,7.09999999 6.30000001,5.55000001 6.65000001,5.00000001 C7,4.45000001 7.5,3.90000001 7.95000001,3.5 C8.50000001,3.04999999 9.05000001,2.69999999 9.75,2.35 C10.3,2.05 10.9,1.8 11.55,1.70000001 C11.7,1.65 11.85,1.60000002 11.95,1.39999999 C12,1.3 12.05,1.14999998 12,0.950000004 C12,0.850000014 11.85,0.650000012 11.75,0.600000006 C11.65,0.500000016 11.5,0.500000016 11.3,0.499999994 C10.5,0.64999999 9.79999999,0.899999998 9.09999999,1.25 C8.45,1.59999999 7.79999999,2 7.20000001,2.55 C6.65000001,3.00000001 6.10000001,3.59999999 5.65,4.25 C5.24999999,4.89999999 4.84999999,5.9 4.55,6.45 C3.79999999,6.8 1.59999999,7.64999999 1.59999999,7.64999999 C1.59999999,7.64999999 0.999999988,7.9 0.800000008,8.15000001 C0.55,8.45 0.500000016,8.95000002 0.499999994,9.15 C0.499999994,9.84999999 0.55,10.55 0.64999999,11.25 C0.849999992,11.95 0.999999988,12.6 1.3,13.25 C1.59999999,13.9 1.94999999,14.5 2.4,15.1 C2.80000001,15.6 4,16.8 4,16.8 C4,16.8 3.94999999,18.7 4.14999999,19.8 C4.2,20.15 4.34999999,20.45 4.45000001,20.55 C5.00000001,21.1 6.55000002,21.45 7.24999999,21.5 C9.04999999,21.55 10.3,21.35 11.35,21 C11.95,20.8 12.95,20.2 13.2,20.05 L13.3,20.05 L16.2,21.15 C16.35,21.2 16.75,21.15 16.9,21.05 C17.05,20.95 17.35,20.5 17.5,20.35 C18.1,19.7 19,17.5 19.2,16.5 C19.35,15.8 19.4,15.15 19.4,14.45 C19.35,13.75 19.3,13.05 19.1,12.4 C19.05,12.25 19.1,12.15 19.1,12.1 Z M12.75,11.5 C12.75,12.1903559 13.3096441,12.75 14,12.75 C14.6903559,12.75 15.25,12.1903559 15.25,11.5 C15.25,10.8096441 14.6903559,10.25 14,10.25 C13.3096441,10.25 12.75,10.8096441 12.75,11.5 Z M6.85000001,13.8 C7.10000002,14.05 7.5,14.05 7.75000001,13.8 L9.5,12.05 C9.7,11.85 9.7,11.5 9.44999999,11.3 L7.5,9.84999999 C7.20000001,9.64999999 6.85000001,9.7 6.65000001,9.99999999 C6.45,10.3 6.50000001,10.65 6.8,10.85 L7.99999999,11.75 L6.85000001,12.9 C6.6,13.15 6.6,13.55 6.85000001,13.8 Z" id="Shape" fill-rule="nonzero"></path>
                    </g>
                </g>
            </g>
        </g>
    </g>
</svg>