<?xml version="1.0" encoding="UTF-8"?>
<svg width="14px" height="14px" viewBox="0 0 14 14" version="1.1" xmlns="http://www.w3.org/2000/svg" xmlns:xlink="http://www.w3.org/1999/xlink">
    <!-- Generator: Sketch 52.2 (67145) - http://www.bohemiancoding.com/sketch -->
    <title>选中 copy@3x</title>
    <desc>Created with Sketch.</desc>
    <g id="Page-1" stroke="none" stroke-width="1" fill="none" fill-rule="evenodd">
        <g id="10发布活动" transform="translate(-3.000000, -600.000000)" fill="#37D0C9" fill-rule="nonzero">
            <g id="选中-copy" transform="translate(2.000000, 599.000000)">
                <rect id="Rectangle-path" opacity="0" x="0" y="0" width="16" height="16"></rect>
                <path d="M8,1 C4.134,1 1,4.134 1,8 C1,11.866 4.134,15 8,15 C11.866,15 15,11.866 15,8 C15,4.134 11.866,1 8,1 Z M12.2426406,12.2426406 C11.6912969,12.794 11.0495312,13.22675 10.3351719,13.5289063 C9.59609375,13.8415 8.8104375,14 8,14 C7.1895625,14 6.40390625,13.8415 5.66482812,13.5289063 C4.95046875,13.2267656 4.30870312,12.794 3.75735937,12.2426406 C3.206,11.6912969 2.77325,11.0495312 2.47109375,10.3351719 C2.1585,9.59609375 2,8.8104375 2,8 C2,7.1895625 2.1585,6.40390625 2.47109375,5.66482812 C2.77323437,4.95046875 3.206,4.30870312 3.75735938,3.75735937 C4.30870313,3.206 4.95046875,2.77325 5.66482812,2.47109375 C6.40390625,2.1585 7.1895625,2 8,2 C8.8104375,2 9.59609375,2.1585 10.3351719,2.47109375 C11.0495313,2.77323437 11.6912969,3.206 12.2426406,3.75735938 C12.794,4.30870313 13.22675,4.95046875 13.5289063,5.66482812 C13.8415,6.40390625 14,7.1895625 14,8 C14,8.8104375 13.8415,9.59609375 13.5289063,10.3351719 C13.22675,11.0495156 12.794,11.6912969 12.2426406,12.2426406 Z" id="Shape"></path>
            </g>
        </g>
    </g>
</svg>