<?xml version="1.0" standalone="no"?><!DOCTYPE svg PUBLIC "-//W3C//DTD SVG 1.1//EN" "http://www.w3.org/Graphics/SVG/1.1/DTD/svg11.dtd"><svg t="1541509917453" class="icon" style="" viewBox="0 0 1024 1024" version="1.1" xmlns="http://www.w3.org/2000/svg" p-id="8663" xmlns:xlink="http://www.w3.org/1999/xlink" width="200" height="200"><defs><style type="text/css"></style></defs><path d="M515.98340233 370.89903134c-97.017981 0-176.33195 78.605809-176.33195 176.331951s78.605809 176.33195 176.33195 176.33195c97.017981 0 176.33195-78.605809 176.33195-176.33195S613.00138333 370.89903134 515.98340233 370.89903134m0 0z" fill="#e6e6e6" p-id="8664"></path><path d="M938.04702633 238.47302934h-184.121715c-9.914246-29.742739-43.197787-119.679115-92.060858-119.679115H370.10235133c-45.322268 0-82.146611 89.936376-92.769018 119.679115H93.91977833C59.21991733 238.47302934 31.60165933 268.21576734 31.60165933 304.33195034v512.70816c0 36.824343 27.618257 65.858921 62.318119 65.858921H938.04702633c34.699862 0 62.318119-29.742739 62.318119-65.858921V305.04011034c0-36.824343-28.326418-66.567082-62.318119-66.567081m-422.063624 528.28769c-121.803596 0-220.237898-98.434302-220.237897-220.237898s98.434302-220.237898 220.237897-220.237897c121.803596 0 220.237898 98.434302 220.237898 220.237897s-99.142462 220.237898-220.237898 220.237898m315.131397-395.861688c-20.536653 0-36.824343-16.28769-36.824343-36.824343 0-20.536653 16.28769-36.824343 36.824343-36.824343 20.536653 0 36.824343 16.28769 36.824343 36.824343 0 20.536653-16.28769 36.824343-36.824343 36.824343m0 0z" fill="#e6e6e6" p-id="8665"></path><path d="M246.17427433 181.82019334c0 13.455048-10.622407 24.077455-24.077456 24.077455H112.33195033C98.87690133 205.18948834 88.25449533 194.56708134 88.25449533 181.82019334c0-13.455048 10.622407-24.077455 24.077455-24.077455H222.80497933c12.746888 0 23.369295 10.622407 23.369295 24.077455m0 0z" fill="#e6e6e6" p-id="8666"></path></svg>