<?xml version="1.0" encoding="UTF-8"?>
<svg width="130px" height="100px" viewBox="0 0 130 100" version="1.1" xmlns="http://www.w3.org/2000/svg" xmlns:xlink="http://www.w3.org/1999/xlink">
    <!-- Generator: Sketch 52.2 (67145) - http://www.bohemiancoding.com/sketch -->
    <title>投递成功@3x</title>
    <desc>Created with Sketch.</desc>
    <g id="Page-1" stroke="none" stroke-width="1" fill="none" fill-rule="evenodd">
        <g id="11发布成功" transform="translate(-123.000000, -191.000000)" fill-rule="nonzero">
            <g id="投递成功" transform="translate(123.000000, 191.000000)">
                <rect id="Rectangle-path" fill="#37D0C9" opacity="0" x="0" y="0" width="99.8649662" height="99.8649662"></rect>
                <path d="M25.9714254,78.3305101 L25.9756189,78.3263166 C26.3729332,78.9566167 27.1280645,79.353931 27.9414179,79.353931 C29.1355064,79.353931 30.0736909,78.3845386 30.0736909,77.1904501 C30.0736909,76.7681695 29.9572468,76.3750488 29.7533233,76.042198 L29.7575169,76.0380045 C26.922028,70.603985 25.444532,64.56417 25.4513278,58.4348537 C25.4513278,37.2368567 42.8362191,19.9872318 64.2088822,19.9872318 C74.6610556,19.9740784 84.6763887,24.1788094 91.9867517,31.6491973 C98.7788372,38.5785971 102.966339,48.0292948 102.966339,58.4347562 C102.966339,64.3135259 101.63084,69.8887022 99.2426632,74.8772693 C99.0561679,75.1884476 98.9570173,75.5441501 98.9556489,75.9069317 C98.9556489,77.1052138 100.043631,78.0746062 101.229332,78.0746062 C101.999092,78.0746062 102.683421,77.6855814 103.070398,77.0843436 L103.080833,77.0885371 C103.097882,77.0540793 103.114527,77.0194233 103.130765,76.9845761 C105.942999,71.2049138 107.400726,64.8602347 107.393166,58.4327082 C107.393166,57.4258665 107.357862,56.4293623 107.289205,55.4412453 L107.289205,6.71923481 L116.325814,14.5119205 C117.22842,15.2864814 118.586133,15.1909645 119.371403,14.2976594 C119.746948,13.8701313 119.936024,13.3102282 119.896552,12.7425517 C119.857081,12.1748752 119.592337,11.6465269 119.161238,11.2750863 L106.712933,0.540870218 C106.37537,0.248589289 105.955,0.0689519419 105.510458,0.0270142536 C105.382223,0.00959813816 105.252989,0.000574188925 105.123578,0 C103.933781,0 102.964389,0.961102776 102.964389,2.14475619 L102.964389,39.5562791 C95.6364919,24.8647183 80.6245011,15.5865091 64.2068342,15.602048 C40.3960615,15.602048 21.0224531,34.8195199 21.0224531,58.4389497 C21.0181347,65.3747172 22.7175835,72.2053651 25.9714254,78.3305101 Z M129.356632,85.1767217 C126.498387,82.1436159 122.446054,84.3944786 119.288215,85.5864216 C117.613526,86.2188672 116.642086,86.0379595 115.121388,85.1101125 C113.446797,84.0886422 111.932341,82.9694524 109.912416,82.7551913 C107.813398,82.5326407 105.918305,83.3751538 104.177007,84.4485071 C101.909565,85.8506152 99.5068567,86.3749062 96.9377719,85.2952138 C94.9823106,84.4734734 93.3409752,83.0589797 91.2191373,82.6345536 C88.8892798,82.1664366 86.7423781,83.2086797 84.8930233,84.5068267 C83.0227982,85.8195049 81.7227007,85.9401425 79.6528432,84.8916579 C77.4602026,83.7849512 75.1511178,82.7364666 72.6256264,83.3064966 C70.3332183,83.8224006 68.3860465,85.2369917 66.1186047,85.8256489 C63.6327082,86.4726257 61.2860765,84.6046437 59.1850113,83.6122356 C57.2254539,82.6865341 55.0057989,82.4369692 52.9629557,83.242033 C50.9555139,84.0304201 49.3765941,85.8714854 47.1506977,86.0565866 C44.487892,86.2791373 42.2828657,84.5692423 39.9092198,83.7370668 C37.4565791,82.877877 35.1537359,83.40012 32.9028732,84.5670968 C31.6485146,85.2182671 30.4023481,86.3145386 28.8879895,86.1085671 C27.3922581,85.9047412 26.3375319,84.6254164 24.9957914,84.0470968 C21.2596324,82.4327757 18.6593398,85.1288372 15.3682821,86.2750413 C13.1070818,87.0634284 10.2633683,84.3736084 8.2495874,83.6226707 C5.2831883,82.515964 2.51427607,83.4333758 0.55471868,85.8548087 C-1.24684921,88.0807052 1.92142536,90.1463691 3.74171793,87.8996999 C4.85466617,86.5246062 5.62637659,86.1626932 7.25737434,86.924066 C8.97975244,87.7291298 10.5316579,88.7796624 12.3457089,89.4079145 C14.3136534,90.090195 16.2669692,89.6575769 18.1080345,88.8525131 C19.9116504,88.066174 21.7775844,86.0857464 23.7726407,87.3525881 C25.6260915,88.527952 27.1508852,89.4058665 29.4329557,89.4828132 C31.7524756,89.561808 33.7288072,88.061883 35.680075,87.0488972 C37.9143586,85.8902101 40.0236159,87.6625206 42.0664591,88.4510053 C44.6252063,89.4369767 47.5147562,89.8031808 50.1150488,88.7900975 C51.8500075,88.113961 53.2333908,86.6703076 55.007847,86.1439685 C57.02982,85.5448762 59.8257464,87.9787922 61.648087,88.6590248 C63.8073743,89.4640885 66.1747787,89.4183496 68.3444036,88.7172468 C70.7366767,87.9413428 72.8357914,86.0087022 75.4630983,86.7326257 C77.5933233,87.3213803 79.2367067,88.8982521 81.549985,89.0334209 C83.8695049,89.1686872 85.6938935,88.2804351 87.5370068,86.9863841 C88.3191523,86.4373218 89.1305551,85.9067892 90.1186722,85.8630983 C90.9986347,85.8236009 91.9596399,86.5787322 92.6710803,86.9947712 C94.9698275,88.3386572 97.3205551,89.1749287 100.004036,89.2206677 C101.66,89.2476819 103.159925,88.8587547 104.663848,88.2117779 C105.905821,87.6792948 106.923098,86.7264816 108.194134,86.250075 C110.307682,85.4574944 112.236032,87.593961 113.966797,88.4822131 C116.284269,89.67006 118.522648,89.514021 120.892003,88.6195274 C122.01958,88.1930533 123.111658,87.6916804 124.253766,87.3006077 C124.686482,87.1508102 125.14826,87.0156414 125.603893,86.9802401 C126.171778,86.9365491 125.8597,86.8970518 126.161343,87.2152738 C128.160593,89.3309677 131.341253,87.279835 129.356632,85.1766242 L129.356632,85.1767217 Z M112.030158,96.2353038 C110.621808,96.7574494 109.804261,96.6076519 108.524839,95.8420855 C107.116587,94.9995724 105.841358,94.073871 104.141703,93.8970593 C102.375536,93.714006 100.782086,94.4087697 99.3175619,95.2970218 C97.409985,96.4536609 95.3879145,96.8905701 93.2265791,95.995979 C91.5790023,95.3157464 90.2018605,94.1487697 88.4127757,93.7971943 C86.4532183,93.4102176 84.6454089,94.2714554 83.0914554,95.3449062 C81.5187772,96.4286947 80.4245536,96.5265116 78.6814029,95.6632258 C76.838192,94.747862 74.8931658,93.8824306 72.7691823,94.3546437 C70.8386872,94.7832633 69.2015454,95.948192 67.293871,96.4370818 C65.2011928,96.9737584 63.2270068,95.4280945 61.4608402,94.6105476 C59.8112153,93.8471268 57.9431358,93.6411553 56.2247562,94.3048087 C54.5376819,94.9579295 53.2063766,96.4786272 51.3341035,96.6304726 C49.0936759,96.8135259 47.2380795,95.4031283 45.2409752,94.7166542 C43.1773593,94.0072618 41.2406227,94.4379295 39.3455289,95.4032258 C38.2887547,95.9419505 37.2423181,96.8447337 35.9670893,96.6763091 C34.7085371,96.509835 33.8202851,95.4530608 32.6928057,94.9746062 C29.5495949,93.6411553 27.3611478,95.8670518 24.5922356,96.8156714 C22.6887547,97.4667442 20.2964816,95.2450413 18.6010203,94.6230308 C16.1068342,93.7098125 13.7748312,94.4669917 12.1272543,96.4662416 C10.6107502,98.3051613 13.2776519,100.18982 14.8086872,98.3342236 C15.7449212,97.1984546 16.3938485,96.8988597 17.7668942,97.5291598 C19.2167892,98.1948612 20.5232258,99.0623406 22.0480195,99.5802926 C23.701838,100.142033 25.3472693,99.7841185 26.8971268,99.1227082 C28.4157764,98.4735859 29.9842611,96.8384921 31.6631433,97.8827832 C33.2232408,98.8543211 34.5067592,99.5782446 36.4269167,99.6427082 C38.3781845,99.7093173 40.0423406,98.4694899 41.6816279,97.6332183 C43.5621905,96.6763091 45.3387922,98.1407352 47.0570743,98.7898575 C49.21012,99.6052588 51.6398425,99.9048537 53.8304351,99.0707277 C55.2907652,98.5131808 56.4557914,97.3170443 57.9472318,96.8842311 C59.6489347,96.3891973 62.0017104,98.4007352 63.5348912,98.9624756 C65.3509902,99.628177 67.345949,99.5907277 69.1703376,99.0102626 C71.184021,98.3695274 72.9501875,96.7719805 75.1614554,97.3710728 C76.9547337,97.8579145 78.3359715,99.158012 80.2831433,99.2724081 C82.2365566,99.3827082 83.7716879,98.6504951 85.3215454,97.5812378 C85.9810053,97.1256039 86.6632858,96.6887922 87.4953638,96.6533908 C88.235964,96.620135 89.0430758,97.2421455 89.6422656,97.5874794 C91.5768567,98.6982821 93.5552363,99.3889497 95.8143886,99.4263991 C97.2082071,99.4493173 98.4709527,99.1268042 99.7357464,98.5943211 C100.782183,98.1553638 101.63913,97.3668792 102.708387,96.9737584 C104.484989,96.3183946 106.109647,98.0826107 107.565881,98.8168717 C109.515101,99.7987472 111.397712,99.66982 113.392671,98.9292198 C114.34129,98.5776444 115.26075,98.1636534 116.221853,97.8391898 C116.585911,97.7164066 116.972791,97.604156 117.357719,97.5748987 C117.834029,97.5395949 117.574029,97.5041935 117.827787,97.7683871 C119.502476,99.5095874 122.177667,97.6394599 120.509317,95.9003076 C118.096174,93.3914929 114.686624,95.2492348 112.030158,96.2353038 Z M9.39793698,22.5792348 C9.62048762,22.5127232 11.5614179,21.9821905 12.2895349,23.6194299 C12.3176566,23.8434001 12.3642699,24.0646582 12.4288972,24.2809377 C12.5659895,24.7299687 13.0401893,24.9837848 13.489865,24.8488222 C13.7059509,24.7897316 13.8891908,24.6462157 13.9983346,24.4505823 C14.1074785,24.2549488 14.1333536,24.0236392 14.070135,23.8087247 C13.5396999,22.025979 15.4556639,21.2520255 15.6783121,21.1687397 C15.8885844,21.0941015 16.0601935,20.9383392 16.154792,20.736259 C16.2493906,20.5341787 16.2590936,20.3026244 16.1817329,20.0933383 C16.0103383,19.6578365 15.523137,19.4382218 15.0833158,19.5982071 C14.3551988,19.8624981 13.3191973,20.4968942 12.7263466,21.4974944 C11.4782296,20.5717929 9.80978245,20.6882371 8.88193548,20.9815904 C8.66895492,21.0462531 8.49075988,21.1935505 8.38717851,21.3905604 C8.28359713,21.5875703 8.26326542,21.8178671 8.33072768,22.0299775 C8.47566983,22.4747274 8.95177232,22.7197616 9.39793698,22.5792348 Z M22.1458365,13.9024906 C22.4391898,13.8129632 24.9978395,13.1057164 25.9568942,15.28997 C25.992198,15.5728882 26.0505176,15.8662416 26.1399475,16.1719805 C26.2242813,16.4582789 26.419078,16.6992493 26.6813455,16.8417088 C26.9436131,16.9841684 27.2517904,17.0164055 27.537862,16.9313053 C27.8238635,16.8496964 28.0654074,16.657206 28.2087889,16.3966323 C28.3521704,16.1360586 28.3855047,15.8290002 28.3013803,15.5437284 C27.6002776,13.1680345 30.127817,12.1362266 30.4211703,12.026024 C30.7000115,11.9244293 30.9267283,11.7156758 31.0509434,11.4461493 C31.1751585,11.1766229 31.186583,10.8686489 31.0826782,10.5906602 C30.8637788,10.0098169 30.2172251,9.71441245 29.6348312,9.92915229 C28.6737284,10.2807277 27.3090698,11.1273368 26.5289722,12.4608852 C24.8813953,11.2251538 22.6845611,11.3832408 21.4593623,11.7722656 C21.1767101,11.8607016 20.9409633,12.0581488 20.804307,12.3209001 C20.6676507,12.5836514 20.6413567,12.8900344 20.7312453,13.1722281 C20.9225881,13.7547412 21.5529857,14.0833983 22.1458365,13.9024906 Z M71.9058965,59.6350863 C71.3775655,59.6342727 70.8882942,59.3566747 70.6165814,58.9035671 C70.3448685,58.4504595 70.3304514,57.8881081 70.5785896,57.4216729 C71.5772393,55.5493998 74.9451463,52.0067292 80.5473368,52.0067292 C87.0169092,52.0067292 89.8045461,56.133961 90.5035034,57.4008027 C90.8589936,58.1216603 90.5857912,58.9946386 89.88278,59.3842335 C89.1797688,59.7738284 88.2947116,59.5427347 87.8719055,58.8591823 C87.3726782,57.9563016 85.3713803,55.0169167 80.5473368,55.0169167 C76.2203751,55.0169167 73.8009902,57.7752963 73.2351538,58.8383121 C72.973538,59.3293129 72.4622454,59.6357883 71.9058965,59.6350863 Z M58.1012228,59.6350863 C57.5451891,59.636459 57.0341554,59.3296886 56.773916,58.8383121 C56.2060315,57.7752963 53.7887922,55.0169167 49.4618305,55.0169167 C44.6376894,55.0169167 42.6364891,57.9583496 42.1372618,58.8591823 C41.7345683,59.585878 40.8190175,59.8485337 40.0923218,59.4458402 C39.3656261,59.0431467 39.1029704,58.1275959 39.5056639,57.4009002 C40.2046212,56.1340585 42.9921605,52.0068267 49.461928,52.0068267 C55.064021,52.0068267 58.431928,55.5493998 59.4304801,57.4216729 C59.6787808,57.8884148 59.6641704,58.4511731 59.3919854,58.904402 C59.1198004,59.357631 58.6299015,59.6349565 58.1012228,59.6350863 Z" id="Shape" fill="#35CFC9"></path>
            </g>
        </g>
    </g>
</svg>