<?xml version="1.0" standalone="no"?><!DOCTYPE svg PUBLIC "-//W3C//DTD SVG 1.1//EN" "http://www.w3.org/Graphics/SVG/1.1/DTD/svg11.dtd"><svg t="1541508001030" class="icon" style="" viewBox="0 0 1024 1024" version="1.1" xmlns="http://www.w3.org/2000/svg" p-id="3690" xmlns:xlink="http://www.w3.org/1999/xlink" width="200" height="200"><defs><style type="text/css"></style></defs><path d="M212.992 526.336 212.992 526.336 212.992 526.336 215.04 526.336 212.992 526.336Z" p-id="3691" fill="#707070"></path><path d="M935.936 690.176 757.76 512l159.744-159.744c26.624-26.624 32.768-63.488 20.48-98.304-20.48-47.104-104.448-114.688-143.36-153.6-32.768-34.816-90.112-34.816-124.928-2.048l-161.792 161.792-178.176-178.176c-12.288-12.288-32.768-12.288-45.056 0l-200.704 200.704c-12.288 12.288-12.288 32.768 0 45.056l178.176 178.176-178.176 178.176c-6.144 6.144-8.192 14.336-8.192 22.528 0 69.632 0 137.216 0 206.848 0 18.432 14.336 32.768 30.72 32.768l206.848 0c8.192 0 16.384-4.096 22.528-10.24l178.176-178.176 178.176 178.176 0 0c12.288 12.288 32.768 12.288 45.056 0l200.704-200.704C948.224 722.944 948.224 702.464 935.936 690.176L935.936 690.176zM714.752 145.408 714.752 145.408c10.24-10.24 26.624-8.192 36.864 2.048 40.96 40.96 81.92 81.92 124.928 122.88 10.24 10.24 10.24 28.672 0 38.912l-57.344 57.344L782.336 327.68l0 0-2.048 0 0 0-88.064-88.064 0 0 0 0 0 0L655.36 202.752 714.752 145.408 714.752 145.408zM741.376 339.968 741.376 339.968c-161.792 161.792-323.584 325.632-487.424 487.424l-61.44-61.44 487.424-487.424C700.416 299.008 720.896 321.536 741.376 339.968L741.376 339.968zM151.552 307.2 151.552 307.2 307.2 151.552l30.72 30.72-55.296 55.296c-8.192 8.192-8.192 20.48 0 26.624 8.192 8.192 20.48 8.192 26.624 0l55.296-55.296 45.056 45.056-28.672 28.672c-8.192 8.192-8.192 20.48 0 26.624 8.192 8.192 20.48 8.192 26.624 0l28.672-28.672 26.624 26.624L307.2 462.848 151.552 307.2 151.552 307.2zM628.736 229.376 628.736 229.376l24.576 22.528L165.888 739.328 143.36 716.8 628.736 229.376 628.736 229.376zM139.264 882.688 139.264 882.688c0-38.912 0-77.824 0-116.736l116.736 116.736L139.264 882.688 139.264 882.688zM305.152 878.592 305.152 878.592l-22.528-22.528c161.792-161.792 325.632-325.632 487.424-487.424l22.528 22.528L305.152 878.592 305.152 878.592zM712.704 868.352 712.704 868.352l-155.648-155.648 155.648-155.648 30.72 28.672L714.752 614.4c-8.192 8.192-8.192 20.48 0 26.624 8.192 8.192 20.48 8.192 26.624 0l28.672-26.624 45.056 45.056-55.296 55.296c-8.192 8.192-8.192 18.432 0 26.624 8.192 6.144 20.48 6.144 26.624 0l55.296-55.296 26.624 28.672L712.704 868.352 712.704 868.352z" p-id="3692" fill="#707070"></path></svg>